<svg xmlns="http://www.w3.org/2000/svg" viewBox="0 0 453.2998889711173 350.0" fill="none" stroke="#4A7BF7" stroke-width="2" stroke-linecap="butt" stroke-linejoin="miter"><!-- step-form — canonical Toggle isometric form; SIGNATURE-DEVICES.md A2; regenerate, never redraw --><g><polygon points="93.07,3.00 138.10,29.00 48.03,81.00 3.00,55.00" fill="none"/><polygon points="138.10,133.00 183.13,159.00 93.07,211.00 48.03,185.00" fill="none"/><polygon points="138.10,133.00 48.03,185.00 48.03,81.00 138.10,29.00" fill="none"/><polygon points="183.13,211.00 93.07,263.00 93.07,211.00 183.13,159.00" fill="#4A7BF7"/><polygon points="3.00,211.00 48.03,237.00 48.03,81.00 3.00,55.00" fill="none"/><polygon points="48.03,237.00 93.07,263.00 93.07,211.00 48.03,185.00" fill="none"/></g><g transform="translate(222,110)"><polygon points="93.07,3.00 183.13,55.00 93.07,107.00 3.00,55.00" fill="none"/><polygon points="183.13,107.00 228.17,133.00 138.10,185.00 93.07,159.00" fill="none"/><polygon points="183.13,107.00 93.07,159.00 93.07,107.00 183.13,55.00" fill="none"/><polygon points="228.17,185.00 138.10,237.00 138.10,185.00 228.17,133.00" fill="none"/><polygon points="3.00,159.00 93.07,211.00 93.07,107.00 3.00,55.00" fill="none"/><polygon points="93.07,211.00 138.10,237.00 138.10,185.00 93.07,159.00" fill="none"/></g></svg>